<svg xmlns="http://www.w3.org/2000/svg" viewBox="-0.5 -0.5 16 16" fill="none" stroke="#000000" stroke-linecap="round" stroke-linejoin="round" id="Brand-Bootstrap--Streamline-Tabler" height="16" width="16"><desc>Brand Bootstrap Streamline Icon: https://streamlinehq.com</desc><path d="M1.25 7.5a1.25 1.25 0 0 0 1.25 -1.25V3.75a1.25 1.25 0 0 1 1.25 -1.25h7.5a1.25 1.25 0 0 1 1.25 1.25v2.5a1.25 1.25 0 0 0 1.25 1.25" stroke-width="1"></path><path d="M1.25 7.5a1.25 1.25 0 0 1 1.25 1.25v2.5a1.25 1.25 0 0 0 1.25 1.25h7.5a1.25 1.25 0 0 0 1.25 -1.25v-2.5a1.25 1.25 0 0 1 1.25 -1.25" stroke-width="1"></path><path d="M5.625 10V5h2.1875a1.25 1.25 0 1 1 0 2.5H5.625h2.5a1.25 1.25 0 1 1 0 2.5H5.625z" stroke-width="1"></path></svg>