<svg xmlns="http://www.w3.org/2000/svg" viewBox="0 0 16 16" id="Figma--Streamline-Font-Awesome" height="16" width="16"><desc>Figma Streamline Icon: https://streamlinehq.com</desc><!--! Font Awesome Free 6.5.2 by @fontawesome - https://fontawesome.com License - https://fontawesome.com/license/free (Icons: CC BY 4.0, Fonts: SIL OFL 1.1, Code: MIT License) Copyright 2024 Fonticons, Inc.--><path d="M2.5494541666666666 3.0936416666666666c0 -1.6202041666666667 1.3134375 -2.9336416666666665 2.9336624999999996 -2.9336416666666665h5.033766666666667c1.6202166666666664 0 2.9336624999999996 1.3134375 2.9336624999999996 2.9336416666666665 0 1.025925 -0.5266291666666666 1.928875 -1.3243166666666666 2.4532041666666666 0.7976875 0.5243625 1.3243166666666666 1.4272791666666667 1.3243166666666666 2.4532166666666666 0 1.6202125 -1.3134458333333332 2.933658333333333 -2.933658333333333 2.933658333333333h-0.06369999999999999c-0.7595625 0 -1.4517166666666665 -0.2886708333333333 -1.9727125 -0.7622874999999999v2.7030541666666665c0 1.641808333333333 -1.347775 2.9655125 -2.981558333333333 2.9655125 -1.6161708333333333 0 -2.9494624999999997 -1.3094333333333332 -2.9494624999999997 -2.9336624999999996 0 -1.0258749999999999 0.5265833333333333 -1.9287625 1.3241999999999998 -2.453120833333333 -0.7976166666666666 -0.5243625 -1.3241999999999998 -1.4272791666666667 -1.3241999999999998 -2.4531541666666667 0 -1.0259375 0.5266291666666666 -1.9288541666666665 1.3243 -2.4532166666666666 -0.7976708333333333 -0.5243291666666666 -1.3243 -1.4272791666666667 -1.3243 -2.4532041666666666Zm4.970070833333333 2.9337083333333336h-2.036408333333333c-1.0895083333333333 0 -1.9727166666666665 0.8832249999999999 -1.9727166666666665 1.9727125 0 1.0852875 0.8763958333333333 1.9658791666666666 1.9600958333333331 1.9726791666666665 0.004195833333333333 -0.00003333333333333333 0.008391666666666665 -0.00003333333333333333 0.012620833333333333 -0.00003333333333333333h2.036408333333333v-3.945358333333333Zm0.96095 1.9727125c0 1.0894833333333334 0.8831958333333333 1.9727083333333333 1.9727083333333333 1.9727083333333333h0.06369999999999999c1.0895166666666665 0 1.9727125 -0.8832249999999999 1.9727125 -1.9727083333333333s-0.8831958333333333 -1.9727083333333333 -1.9727083333333333 -1.9727083333333333h-0.06369999999999999c-1.0895166666666665 0 -1.9727125 0.8832249999999999 -1.9727125 1.9727083333333333Zm-2.997358333333333 2.933658333333333c-0.004229166666666667 0 -0.008424999999999998 -0.00002916666666666667 -0.012620833333333333 -0.00002916666666666667 -1.0836999999999999 0.006766666666666666 -1.9600958333333331 0.8873583333333334 -1.9600958333333331 1.97265 0 1.0855 0.8950041666666666 1.9727083333333333 1.9885166666666667 1.9727083333333333 1.1111375 0 2.020608333333333 -0.9014791666666666 2.020608333333333 -2.004558333333333v-1.9407708333333331h-2.036408333333333Zm0 -9.812774999999998c-1.0895083333333333 0 -1.9727166666666665 0.8832083333333333 -1.9727166666666665 1.9726958333333333 0 1.0895041666666665 0.8832083333333333 1.9727 1.9727166666666665 1.9727h2.036408333333333V1.1209458333333333h-2.036408333333333Zm2.997358333333333 3.945395833333333h2.036408333333333c1.0895166666666665 0 1.9727125 -0.8831958333333333 1.9727125 -1.9727 0 -1.0894875 -0.8831958333333333 -1.9726958333333333 -1.9727083333333333 -1.9726958333333333h-2.0364125v3.9453916666666666Z" fill="#000000" stroke-width="0.0417"></path></svg>