<svg width="512" height="512" viewBox="0 0 512 512" fill="none" xmlns="http://www.w3.org/2000/svg">
<g clip-path="url(#clip0_58_36)">
<path d="M235.4 277.374H181.132C184.875 264.585 188.776 251.653 192.705 238.629C197.946 221.254 203.237 203.714 208.266 186.135C213.352 205.283 219.18 224.184 225.008 243.088L225.009 243.089C228.526 254.498 232.044 265.907 235.4 277.374Z" fill="url(#paint0_linear_58_36)"/>
<path fill-rule="evenodd" clip-rule="evenodd" d="M12.6225 63.2331C0 88.0061 0 120.436 0 185.295V326.705C0 391.564 0 423.994 12.6225 448.767C23.7255 470.558 41.4421 488.275 63.2331 499.378C88.006 512 120.435 512 185.294 512H326.705C391.564 512 423.994 512 448.767 499.378C470.558 488.275 488.275 470.558 499.378 448.767C512 423.994 512 391.564 512 326.706V185.295C512 120.436 512 88.006 499.378 63.2331C488.275 41.4421 470.558 23.7255 448.767 12.6225C423.994 0 391.564 0 326.705 0H185.295C120.436 0 88.0061 0 63.2331 12.6225C41.4421 23.7255 23.7255 41.4421 12.6225 63.2331ZM351.883 181.157C355.138 182.492 358.632 183.108 362.135 182.964C365.77 183.14 369.402 182.543 372.801 181.209C376.2 179.875 379.292 177.834 381.884 175.214C384.364 172.545 386.295 169.392 387.564 165.943C388.832 162.493 389.412 158.818 389.268 155.134C389.406 151.56 388.855 147.994 387.647 144.639C386.438 141.284 384.597 138.207 382.228 135.583C377.534 130.534 371.065 128.009 362.822 128.009C359.314 127.916 355.823 128.538 352.551 129.838C349.279 131.138 346.291 133.091 343.759 135.583C341.203 138.101 339.193 141.144 337.862 144.513C336.53 147.882 335.906 151.501 336.031 155.134C335.884 158.803 336.446 162.466 337.684 165.912C338.922 169.358 340.811 172.519 343.244 175.214C345.684 177.796 348.628 179.821 351.883 181.157ZM338.435 204.452V372.839C338.436 375.187 339.466 376.362 341.527 376.362H383.43C385.262 376.363 386.178 375.189 386.178 372.839V204.452C386.176 202.338 385.26 201.281 383.43 201.281H341.183C339.348 201.281 338.435 202.339 338.435 204.452ZM168.767 321.76H248.108L265.625 373.897C265.998 375.467 267.493 376.541 269.059 376.363H313.71C315.771 376.365 316.458 375.19 315.772 372.84L237.804 147.385C237.572 146.211 236.656 145.623 235.056 145.623H180.446C179.088 145.425 177.844 146.675 178.041 148.09C178.026 152.879 177.566 157.656 176.667 162.356C175.981 165.058 175.293 167.465 174.606 169.578L105.913 372.488C105.224 375.071 106.026 376.363 108.317 376.363H148.503C150.417 376.457 152.176 375.103 152.625 373.192L168.767 321.76Z" fill="url(#paint1_linear_58_36)"/>
</g>
<defs>
<linearGradient id="paint0_linear_58_36" x1="256" y1="0" x2="256" y2="512" gradientUnits="userSpaceOnUse">
<stop stop-color="#BABABA"/>
<stop offset="0.8" stop-color="#353535"/>
</linearGradient>
<linearGradient id="paint1_linear_58_36" x1="256" y1="0" x2="256" y2="512" gradientUnits="userSpaceOnUse">
<stop stop-color="#BABABA"/>
<stop offset="0.8" stop-color="#353535"/>
</linearGradient>
<clipPath id="clip0_58_36">
<rect width="512" height="512" fill="white"/>
</clipPath>
</defs>
</svg>
