<svg xmlns="http://www.w3.org/2000/svg" fill="none" viewBox="0 0 16 16" id="Adobe-Illustrator-Logo--Streamline-Logos" height="16" width="16"><desc>Adobe Illustrator Logo Streamline Icon: https://streamlinehq.com</desc><path fill="#000000" fill-rule="evenodd" d="M0.5 3.1a2.5999999999999996 2.5999999999999996 0 0 1 2.5999999999999996 -2.5999999999999996h9.799999999999999a2.5999999999999996 2.5999999999999996 0 0 1 2.5999999999999996 2.5999999999999996v9.799999999999999a2.5999999999999996 2.5999999999999996 0 0 1 -2.5999999999999996 2.5999999999999996H3.1a2.5999999999999996 2.5999999999999996 0 0 1 -2.5999999999999996 -2.5999999999999996V3.1Zm2.5999999999999996 -1.5999999999999999a1.5999999999999999 1.5999999999999999 0 0 0 -1.5999999999999999 1.5999999999999999v9.799999999999999a1.5999999999999999 1.5999999999999999 0 0 0 1.5999999999999999 1.5999999999999999h9.799999999999999a1.5999999999999999 1.5999999999999999 0 0 0 1.5999999999999999 -1.5999999999999999V3.1a1.5999999999999999 1.5999999999999999 0 0 0 -1.5999999999999999 -1.5999999999999999H3.1Zm7.865333333333333 4.2813333333333325a0.6666666666666666 0.6666666666666666 0 1 0 0 -1.3333333333333333 0.6666666666666666 0.6666666666666666 0 0 0 0 1.3333333333333333Zm0.6666666666666666 5.533333333333333V6.499333333333333h-1.3333333333333333v4.815333333333333h1.3333333333333333ZM5.38 5.229333333333333l-2.1293333333333333 6.085333333333333h1.3479999999999999l0.5166666666666666 -1.5246666666666666h2.3053333333333335l0.5546666666666666 1.5246666666666666h1.4613333333333334L7.079999999999999 4.788666666666666H5.38v0.44066666666666665Zm1.6626666666666667 3.2633333333333328H5.480666666666666l0.7813333333333332 -2.5446666666666666 0.7806666666666666 2.5446666666666666Z" clip-rule="evenodd" stroke-width="0.6667"></path></svg>