<svg role="img" viewBox="0 0 16 16" xmlns="http://www.w3.org/2000/svg" id="Javascript--Streamline-Simple-Icons" height="16" width="16"><desc>Javascript Streamline Icon: https://streamlinehq.com</desc><title>JavaScript</title><path d="M0 0h16v16H0V0zm14.689333333333332 12.184c-0.11666666666666665 -0.73 -0.592 -1.3433333333333333 -2.002 -1.9153333333333333 -0.49066666666666664 -0.22999999999999998 -1.036 -0.38999999999999996 -1.198 -0.7599999999999999 -0.06066666666666666 -0.22 -0.06999999999999999 -0.33999999999999997 -0.030666666666666665 -0.47 0.09999999999999999 -0.43066666666666664 0.61 -0.5599999999999999 1.0099999999999998 -0.44 0.26 0.07999999999999999 0.5 0.27999999999999997 0.6506666666666666 0.6 0.6893333333333334 -0.45066666666666666 0.6893333333333334 -0.45066666666666666 1.17 -0.75 -0.18 -0.27999999999999997 -0.2693333333333333 -0.4006666666666666 -0.3906666666666666 -0.52 -0.42 -0.47 -0.9793333333333334 -0.71 -1.8893333333333333 -0.6893333333333334l-0.47 0.05933333333333333c-0.45066666666666666 0.11 -0.88 0.35 -1.14 0.6699999999999999 -0.7599999999999999 0.8606666666666666 -0.5406666666666666 2.3606666666666665 0.3793333333333333 2.9806666666666666 0.9099999999999999 0.6799999999999999 2.240666666666667 0.8293333333333333 2.4106666666666667 1.47 0.15999999999999998 0.7799999999999999 -0.58 1.0299999999999998 -1.3106666666666666 0.94 -0.5406666666666666 -0.12 -0.84 -0.3906666666666666 -1.17 -0.8906666666666667l-1.22 0.7006666666666665c0.13999999999999999 0.31999999999999995 0.3 0.45933333333333326 0.54 0.7393333333333333 1.16 1.1706666666666665 4.06 1.1106666666666665 4.580666666666667 -0.6693333333333333 0.019333333333333334 -0.06 0.15999999999999998 -0.47 0.049333333333333326 -1.0999999999999999l0.030666666666666665 0.04466666666666667zm-5.988666666666667 -4.83h-1.4986666666666668c0 1.2919999999999998 -0.005999999999999999 2.5759999999999996 -0.005999999999999999 3.8699999999999997 0 0.8213333333333332 0.041999999999999996 1.5753333333333333 -0.092 1.8073333333333332 -0.22 0.45933333333333326 -0.7866666666666666 0.4006666666666666 -1.044 0.31999999999999995 -0.264 -0.13066666666666665 -0.39799999999999996 -0.31066666666666665 -0.5533333333333332 -0.57 -0.041999999999999996 -0.06999999999999999 -0.07333333333333333 -0.13066666666666665 -0.08466666666666667 -0.13066666666666665l-1.2166666666666666 0.75c0.2033333333333333 0.42 0.5 0.7813333333333332 0.8826666666666667 1.0113333333333332 0.57 0.33999999999999997 1.3359999999999999 0.45 2.138 0.27 0.522 -0.15066666666666667 0.972 -0.4606666666666666 1.2073333333333331 -0.9406666666666667 0.33999999999999997 -0.62 0.268 -1.38 0.26466666666666666 -2.2306666666666666 0.008 -1.369333333333333 0 -2.739333333333333 0 -4.1193333333333335l0.0026666666666666666 -0.03733333333333333z" fill="#000000" stroke-width="0.6667"></path></svg>