<svg width="512" height="512" viewBox="0 0 512 512" fill="none" xmlns="http://www.w3.org/2000/svg">
<g clip-path="url(#clip0_58_47)">
<path d="M156.221 263.346V189.828C171.268 187.623 190.708 187.97 204.648 193.766C217.419 198.734 224.921 211.944 224.488 225.711C224.488 241.868 215.957 255.352 200.381 259.845C186.272 264.538 170.905 264.421 156.221 263.346Z" fill="url(#paint0_linear_58_47)"/>
<path fill-rule="evenodd" clip-rule="evenodd" d="M12.6225 63.2331C0 88.0061 0 120.436 0 185.295V326.705C0 391.564 0 423.994 12.6225 448.767C23.7255 470.558 41.4421 488.275 63.2331 499.378C88.006 512 120.435 512 185.294 512H326.705C391.564 512 423.994 512 448.767 499.378C470.558 488.275 488.275 470.558 499.378 448.767C512 423.994 512 391.564 512 326.706V185.295C512 120.436 512 88.006 499.378 63.2331C488.275 41.4421 470.558 23.7255 448.767 12.6225C423.994 0 391.564 0 326.705 0H185.295C120.436 0 88.0061 0 63.2331 12.6225C41.4421 23.7255 23.7255 41.4421 12.6225 63.2331ZM109.714 150.005V375.154C109.714 377.123 110.568 377.999 112.274 377.999H152.808C154.525 377.999 156.297 377.015 156.008 374.935V304.699L157.682 304.7C194.282 304.708 234.716 304.716 258.194 271.004C266.728 258.751 270.994 243.216 270.994 224.399C270.994 214.552 269.288 205.144 266.088 195.954C252.507 158.521 213.763 146.286 177.981 146.286C166.955 146.286 155.932 146.614 144.911 146.942L144.909 146.942C133.889 147.27 122.869 147.599 111.848 147.599C110.354 147.599 109.714 148.474 109.714 150.005ZM383.617 241.423C390.724 242.93 397.598 245.419 404.053 248.821C405.714 249.667 408.167 248.915 408.04 246.707V211.127C408.048 209.241 407.634 207.136 405.635 206.548C391.738 200.485 375.706 199.379 360.776 199.502C328.841 199.51 293.38 216.314 293.457 253.752C293.233 270.257 301.462 285.259 314.579 294.616C323.966 301.285 334.192 306.618 344.976 310.468C345.85 310.799 346.879 311.162 348.015 311.562C356.544 314.57 371.08 319.695 371.08 329.491C371.199 341.057 355.596 341.82 347.724 341.82C329.891 341.578 311.62 337.052 296.204 327.73C294.924 326.632 293.287 327.966 293.456 329.491V367.536C293.392 369.268 294.359 370.969 295.861 371.764C311.594 379.143 329.503 381.806 346.694 381.628C379.716 381.624 418.24 365.729 417.448 325.968C418.024 294.029 388.726 278.141 362.837 269.252C362.024 268.921 361.098 268.564 360.094 268.177C351.982 265.048 338.736 259.938 338.451 250.582C338.465 231.748 374.484 239.274 383.617 241.423Z" fill="url(#paint1_linear_58_47)"/>
</g>
<defs>
<linearGradient id="paint0_linear_58_47" x1="256" y1="0" x2="256" y2="512" gradientUnits="userSpaceOnUse">
<stop stop-color="#BABABA"/>
<stop offset="0.8" stop-color="#353535"/>
</linearGradient>
<linearGradient id="paint1_linear_58_47" x1="256" y1="0" x2="256" y2="512" gradientUnits="userSpaceOnUse">
<stop stop-color="#BABABA"/>
<stop offset="0.8" stop-color="#353535"/>
</linearGradient>
<clipPath id="clip0_58_47">
<rect width="512" height="512" fill="white"/>
</clipPath>
</defs>
</svg>
