<svg xmlns="http://www.w3.org/2000/svg" fill="none" viewBox="0 0 16 16" id="Adobe-Photoshop-Logo--Streamline-Logos" height="16" width="16"><desc>Adobe Photoshop Logo Streamline Icon: https://streamlinehq.com</desc><path fill="#000000" fill-rule="evenodd" d="M0.5 3.1a2.5999999999999996 2.5999999999999996 0 0 1 2.5999999999999996 -2.5999999999999996h9.799999999999999a2.5999999999999996 2.5999999999999996 0 0 1 2.5999999999999996 2.5999999999999996v9.799999999999999a2.5999999999999996 2.5999999999999996 0 0 1 -2.5999999999999996 2.5999999999999996H3.1a2.5999999999999996 2.5999999999999996 0 0 1 -2.5999999999999996 -2.5999999999999996V3.1Zm2.5999999999999996 -1.5999999999999999a1.5999999999999999 1.5999999999999999 0 0 0 -1.5999999999999999 1.5999999999999999v9.799999999999999a1.5999999999999999 1.5999999999999999 0 0 0 1.5999999999999999 1.5999999999999999h9.799999999999999a1.5999999999999999 1.5999999999999999 0 0 0 1.5999999999999999 -1.5999999999999999V3.1a1.5999999999999999 1.5999999999999999 0 0 0 -1.5999999999999999 -1.5999999999999999H3.1Zm8.85 6.256c-0.5713333333333332 -0.12866666666666665 -1.1766666666666665 -0.22999999999999998 -1.6153333333333333 -0.1973333333333333 -0.222 0.016 -0.5053333333333333 0.08533333333333333 -0.22 0.31466666666666665 0.2353333333333333 0.18799999999999997 0.5133333333333333 0.306 0.7919999999999999 0.42333333333333334 0.2866666666666666 0.12133333333333332 0.5746666666666667 0.24333333333333332 0.8186666666666667 0.444 0.3406666666666667 0.27999999999999997 0.608 0.688 0.608 1.2593333333333332 0 0.57 -0.2693333333333333 1.0066666666666666 -0.6986666666666667 1.2666666666666666 -0.3793333333333333 0.2293333333333333 -0.8373333333333333 0.29466666666666663 -1.234 0.30466666666666664 -0.6413333333333333 0.016 -1.3479999999999999 -0.112 -1.8746666666666665 -0.24133333333333332v-1.3786666666666667c0.4853333333333333 0.13866666666666666 1.2386666666666666 0.302 1.8413333333333333 0.2866666666666666 0.3133333333333333 -0.007333333333333332 0.498 -0.06466666666666666 0.582 -0.11533333333333332 0.13333333333333333 -0.07999999999999999 0.011999999999999999 -0.284 -0.06999999999999999 -0.35133333333333333 -0.23466666666666663 -0.1933333333333333 -0.5166666666666666 -0.312 -0.7999999999999999 -0.43133333333333335 -0.27999999999999997 -0.118 -0.5613333333333332 -0.23666666666666664 -0.7986666666666666 -0.42666666666666664 -0.33999999999999997 -0.2733333333333333 -0.614 -0.6766666666666665 -0.614 -1.2466666666666666 0 -0.46333333333333326 0.1933333333333333 -0.8533333333333333 0.5466666666666666 -1.1099999999999999 0.31466666666666665 -0.22666666666666668 0.696 -0.304 1.0219999999999998 -0.32799999999999996 0.5499999999999999 -0.04066666666666666 1.1846666666666665 0.05466666666666667 1.7146666666666666 0.16333333333333333v1.3639999999999999ZM6 4.666666666666666H3.6666666666666665v6.666666666666666h1.3333333333333333v-2H6a2.333333333333333 2.333333333333333 0 1 0 0 -4.666666666666666Zm0 3.333333333333333H5V6H6a1 1 0 1 1 0 2Z" clip-rule="evenodd" stroke-width="0.6667"></path></svg>